<svg width="28" height="28" viewBox="0 0 28 28" fill="none" xmlns="http://www.w3.org/2000/svg">
<mask id="mask0_446_1289" style="mask-type:alpha" maskUnits="userSpaceOnUse" x="0" y="0" width="28" height="28">
<rect width="28" height="28" fill="#D9D9D9"/>
</mask>
<g mask="url(#mask0_446_1289)">
<path d="M14 13.6409C12.8771 13.6409 11.9158 13.2411 11.1161 12.4415C10.3165 11.6418 9.91667 10.6806 9.91667 9.55767C9.91667 8.43475 10.3165 7.47348 11.1161 6.67384C11.9158 5.87419 12.8771 5.47437 14 5.47437C15.1229 5.47437 16.0841 5.87419 16.8838 6.67384C17.6834 7.47348 18.0833 8.43475 18.0833 9.55767C18.0833 10.6806 17.6834 11.6418 16.8838 12.4415C16.0841 13.2411 15.1229 13.6409 14 13.6409ZM5.25 20.7531V19.932C5.25 19.3606 5.40519 18.8315 5.71556 18.3447C6.02591 17.8578 6.44059 17.4835 6.9596 17.2218C8.11281 16.6564 9.27612 16.2323 10.4495 15.9497C11.6229 15.667 12.8064 15.5256 14 15.5256C15.1935 15.5256 16.377 15.667 17.5504 15.9497C18.7238 16.2323 19.8871 16.6564 21.0403 17.2218C21.5593 17.4835 21.974 17.8578 22.2844 18.3447C22.5948 18.8315 22.7499 19.3606 22.7499 19.932V20.7531C22.7499 21.2452 22.5776 21.6636 22.2328 22.0084C21.888 22.3532 21.4696 22.5256 20.9775 22.5256H7.0224C6.53032 22.5256 6.1119 22.3532 5.76715 22.0084C5.42238 21.6636 5.25 21.2452 5.25 20.7531ZM6.99997 20.7756H21V19.932C21 19.6957 20.9315 19.4769 20.7947 19.2757C20.6578 19.0746 20.472 18.9104 20.2371 18.7833C19.232 18.2882 18.2071 17.9131 17.1625 17.6581C16.1178 17.4031 15.0636 17.2756 14 17.2756C12.9363 17.2756 11.8822 17.4031 10.8375 17.6581C9.79281 17.9131 8.76792 18.2882 7.7628 18.7833C7.52796 18.9104 7.34212 19.0746 7.20527 19.2757C7.06841 19.4769 6.99997 19.6957 6.99997 19.932V20.7756ZM14 11.891C14.6416 11.891 15.1909 11.6625 15.6479 11.2056C16.1048 10.7486 16.3333 10.1993 16.3333 9.55767C16.3333 8.916 16.1048 8.3667 15.6479 7.90975C15.1909 7.45281 14.6416 7.22434 14 7.22434C13.3583 7.22434 12.809 7.45281 12.3521 7.90975C11.8951 8.3667 11.6666 8.916 11.6666 9.55767C11.6666 10.1993 11.8951 10.7486 12.3521 11.2056C12.809 11.6625 13.3583 11.891 14 11.891Z" fill="#1C1B1F"/>
</g>
</svg>
